<svg width="471" height="208" viewBox="0 0 471 208" fill="none" xmlns="http://www.w3.org/2000/svg">
<path d="M0.417969 53H5.74297V9.65H0.417969V5.15H21.568V9.65H16.243V53H21.568V57.5H0.417969V53ZM27.9482 53H32.7482V25.175L27.9482 24.2V20.45L42.4232 17.45V24.725H42.7982C43.1482 23.775 43.6232 22.875 44.2232 22.025C44.8732 21.125 45.6482 20.35 46.5482 19.7C47.4982 19 48.5732 18.45 49.7732 18.05C50.9732 17.65 52.3482 17.45 53.8982 17.45C58.6482 17.45 62.0232 18.675 64.0232 21.125C66.0232 23.525 67.0232 27.15 67.0232 32V53H71.8232V57.5H52.6232V53H57.1982V32.45C57.1982 29.5 56.6482 27.375 55.5482 26.075C54.4482 24.725 52.6732 24.05 50.2232 24.05C49.2732 24.05 48.3482 24.175 47.4482 24.425C46.5482 24.675 45.7232 25.075 44.9732 25.625C44.2732 26.125 43.6982 26.775 43.2482 27.575C42.7982 28.375 42.5732 29.325 42.5732 30.425V53H47.1482V57.5H27.9482V53ZM92.9205 58.4C90.5205 58.4 88.3455 57.925 86.3955 56.975C84.4955 56.025 82.8455 54.675 81.4455 52.925C80.0955 51.125 79.0455 48.975 78.2955 46.475C77.5955 43.925 77.2455 41.075 77.2455 37.925C77.2455 34.775 77.5955 31.95 78.2955 29.45C79.0455 26.9 80.0955 24.75 81.4455 23C82.8455 21.2 84.4955 19.825 86.3955 18.875C88.3455 17.925 90.5205 17.45 92.9205 17.45C95.7705 17.45 98.0705 18.125 99.8205 19.475C101.571 20.825 102.821 22.375 103.571 24.125H103.946V8.225L99.1455 7.25V3.5L113.771 0.499996V50.675L118.571 51.65V55.4L103.946 58.4V51.65H103.571C102.821 53.45 101.546 55.025 99.7455 56.375C97.9955 57.725 95.7205 58.4 92.9205 58.4ZM96.1455 52.25C98.2455 52.25 100.071 51.625 101.621 50.375C103.171 49.075 103.946 47.325 103.946 45.125V30.725C103.946 28.525 103.171 26.8 101.621 25.55C100.071 24.25 98.2455 23.6 96.1455 23.6C93.6455 23.6 91.6205 24.45 90.0705 26.15C88.5205 27.85 87.7455 30.25 87.7455 33.35V42.5C87.7455 45.6 88.5205 48 90.0705 49.7C91.6205 51.4 93.6455 52.25 96.1455 52.25ZM142.499 58.4C139.499 58.4 136.824 57.9 134.474 56.9C132.174 55.9 130.224 54.5 128.624 52.7C127.024 50.85 125.799 48.675 124.949 46.175C124.149 43.625 123.749 40.85 123.749 37.85C123.749 34.75 124.174 31.95 125.024 29.45C125.924 26.9 127.174 24.75 128.774 23C130.374 21.2 132.274 19.825 134.474 18.875C136.724 17.925 139.199 17.45 141.899 17.45C144.599 17.45 147.024 17.9 149.174 18.8C151.374 19.65 153.224 20.875 154.724 22.475C156.274 24.075 157.449 26 158.249 28.25C159.099 30.45 159.524 32.925 159.524 35.675V38H134.324V40.7C134.324 44.3 135.249 47.075 137.099 49.025C138.999 50.925 141.474 51.875 144.524 51.875C147.324 51.875 149.574 51.25 151.274 50C152.974 48.75 154.224 47.2 155.024 45.35L158.699 47.6C158.249 48.85 157.574 50.125 156.674 51.425C155.824 52.675 154.724 53.825 153.374 54.875C152.074 55.925 150.524 56.775 148.724 57.425C146.924 58.075 144.849 58.4 142.499 58.4ZM134.324 33.65H149.324V32.675C149.324 29.075 148.674 26.425 147.374 24.725C146.124 23.025 144.299 22.175 141.899 22.175C139.499 22.175 137.624 23.025 136.274 24.725C134.974 26.375 134.324 29 134.324 32.6V33.65ZM164.749 68H169.549V25.175L164.749 24.2V20.45L179.374 17.45V24.2H179.749C180.499 22.4 181.749 20.825 183.499 19.475C185.299 18.125 187.599 17.45 190.399 17.45C192.799 17.45 194.949 17.925 196.849 18.875C198.799 19.825 200.449 21.2 201.799 23C203.199 24.75 204.249 26.9 204.949 29.45C205.699 31.95 206.074 34.775 206.074 37.925C206.074 41.075 205.699 43.925 204.949 46.475C204.249 48.975 203.199 51.125 201.799 52.925C200.449 54.675 198.799 56.025 196.849 56.975C194.949 57.925 192.799 58.4 190.399 58.4C187.549 58.4 185.249 57.725 183.499 56.375C181.749 55.025 180.499 53.475 179.749 51.725H179.374V68H185.674V72.5H164.749V68ZM187.174 52.25C189.674 52.25 191.699 51.4 193.249 49.7C194.799 48 195.574 45.6 195.574 42.5V33.35C195.574 30.25 194.799 27.85 193.249 26.15C191.699 24.45 189.674 23.6 187.174 23.6C185.074 23.6 183.249 24.25 181.699 25.55C180.149 26.8 179.374 28.525 179.374 30.725V45.125C179.374 47.325 180.149 49.075 181.699 50.375C183.249 51.625 185.074 52.25 187.174 52.25ZM231.488 58.4C228.488 58.4 225.813 57.9 223.463 56.9C221.163 55.9 219.213 54.5 217.613 52.7C216.013 50.85 214.788 48.675 213.938 46.175C213.138 43.625 212.738 40.85 212.738 37.85C212.738 34.75 213.163 31.95 214.013 29.45C214.913 26.9 216.163 24.75 217.763 23C219.363 21.2 221.263 19.825 223.463 18.875C225.713 17.925 228.188 17.45 230.888 17.45C233.588 17.45 236.013 17.9 238.163 18.8C240.363 19.65 242.213 20.875 243.713 22.475C245.263 24.075 246.438 26 247.238 28.25C248.088 30.45 248.513 32.925 248.513 35.675V38H223.313V40.7C223.313 44.3 224.238 47.075 226.088 49.025C227.988 50.925 230.463 51.875 233.513 51.875C236.313 51.875 238.563 51.25 240.263 50C241.963 48.75 243.213 47.2 244.013 45.35L247.688 47.6C247.238 48.85 246.563 50.125 245.663 51.425C244.813 52.675 243.713 53.825 242.363 54.875C241.063 55.925 239.513 56.775 237.713 57.425C235.913 58.075 233.838 58.4 231.488 58.4ZM223.313 33.65H238.313V32.675C238.313 29.075 237.663 26.425 236.363 24.725C235.113 23.025 233.288 22.175 230.888 22.175C228.488 22.175 226.613 23.025 225.263 24.725C223.963 26.375 223.313 29 223.313 32.6V33.65ZM254.413 53H259.213V25.175L254.413 24.2V20.45L268.888 17.45V24.725H269.263C269.613 23.775 270.088 22.875 270.688 22.025C271.338 21.125 272.113 20.35 273.013 19.7C273.963 19 275.038 18.45 276.238 18.05C277.438 17.65 278.813 17.45 280.363 17.45C285.113 17.45 288.488 18.675 290.488 21.125C292.488 23.525 293.488 27.15 293.488 32V53H298.288V57.5H279.088V53H283.663V32.45C283.663 29.5 283.113 27.375 282.013 26.075C280.913 24.725 279.138 24.05 276.688 24.05C275.738 24.05 274.813 24.175 273.913 24.425C273.013 24.675 272.188 25.075 271.438 25.625C270.738 26.125 270.163 26.775 269.713 27.575C269.263 28.375 269.038 29.325 269.038 30.425V53H273.613V57.5H254.413V53ZM319.385 58.4C316.985 58.4 314.81 57.925 312.86 56.975C310.96 56.025 309.31 54.675 307.91 52.925C306.56 51.125 305.51 48.975 304.76 46.475C304.06 43.925 303.71 41.075 303.71 37.925C303.71 34.775 304.06 31.95 304.76 29.45C305.51 26.9 306.56 24.75 307.91 23C309.31 21.2 310.96 19.825 312.86 18.875C314.81 17.925 316.985 17.45 319.385 17.45C322.235 17.45 324.535 18.125 326.285 19.475C328.035 20.825 329.285 22.375 330.035 24.125H330.41V8.225L325.61 7.25V3.5L340.235 0.499996V50.675L345.035 51.65V55.4L330.41 58.4V51.65H330.035C329.285 53.45 328.01 55.025 326.21 56.375C324.46 57.725 322.185 58.4 319.385 58.4ZM322.61 52.25C324.71 52.25 326.535 51.625 328.085 50.375C329.635 49.075 330.41 47.325 330.41 45.125V30.725C330.41 28.525 329.635 26.8 328.085 25.55C326.535 24.25 324.71 23.6 322.61 23.6C320.11 23.6 318.085 24.45 316.535 26.15C314.985 27.85 314.21 30.25 314.21 33.35V42.5C314.21 45.6 314.985 48 316.535 49.7C318.085 51.4 320.11 52.25 322.61 52.25ZM368.964 58.4C365.964 58.4 363.289 57.9 360.939 56.9C358.639 55.9 356.689 54.5 355.089 52.7C353.489 50.85 352.264 48.675 351.414 46.175C350.614 43.625 350.214 40.85 350.214 37.85C350.214 34.75 350.639 31.95 351.489 29.45C352.389 26.9 353.639 24.75 355.239 23C356.839 21.2 358.739 19.825 360.939 18.875C363.189 17.925 365.664 17.45 368.364 17.45C371.064 17.45 373.489 17.9 375.639 18.8C377.839 19.65 379.689 20.875 381.189 22.475C382.739 24.075 383.914 26 384.714 28.25C385.564 30.45 385.989 32.925 385.989 35.675V38H360.789V40.7C360.789 44.3 361.714 47.075 363.564 49.025C365.464 50.925 367.939 51.875 370.989 51.875C373.789 51.875 376.039 51.25 377.739 50C379.439 48.75 380.689 47.2 381.489 45.35L385.164 47.6C384.714 48.85 384.039 50.125 383.139 51.425C382.289 52.675 381.189 53.825 379.839 54.875C378.539 55.925 376.989 56.775 375.189 57.425C373.389 58.075 371.314 58.4 368.964 58.4ZM360.789 33.65H375.789V32.675C375.789 29.075 375.139 26.425 373.839 24.725C372.589 23.025 370.764 22.175 368.364 22.175C365.964 22.175 364.089 23.025 362.739 24.725C361.439 26.375 360.789 29 360.789 32.6V33.65ZM391.889 53H396.689V25.175L391.889 24.2V20.45L406.364 17.45V24.725H406.739C407.089 23.775 407.564 22.875 408.164 22.025C408.814 21.125 409.589 20.35 410.489 19.7C411.439 19 412.514 18.45 413.714 18.05C414.914 17.65 416.289 17.45 417.839 17.45C422.589 17.45 425.964 18.675 427.964 21.125C429.964 23.525 430.964 27.15 430.964 32V53H435.764V57.5H416.564V53H421.139V32.45C421.139 29.5 420.589 27.375 419.489 26.075C418.389 24.725 416.614 24.05 414.164 24.05C413.214 24.05 412.289 24.175 411.389 24.425C410.489 24.675 409.664 25.075 408.914 25.625C408.214 26.125 407.639 26.775 407.189 27.575C406.739 28.375 406.514 29.325 406.514 30.425V53H411.089V57.5H391.889V53ZM453.411 58.175C450.461 58.175 448.336 57.55 447.036 56.3C445.786 55.05 445.161 53.125 445.161 50.525V23.15H439.986V18.35H441.636C443.386 18.35 444.636 18.025 445.386 17.375C446.136 16.675 446.786 15.65 447.336 14.3L450.036 7.775H454.986V18.35H463.986V23.15H454.986V52.85H463.986V56.675C463.186 57.075 461.811 57.425 459.861 57.725C457.911 58.025 455.761 58.175 453.411 58.175ZM134.628 125.4C131.528 125.4 129.028 124.85 127.128 123.75C125.278 122.6 124.003 121.375 123.303 120.075H123.003V124.5H115.278V109.2H123.003V112.5C123.003 117.7 126.603 120.3 133.803 120.3C137.503 120.3 140.228 119.55 141.978 118.05C143.728 116.55 144.603 114.525 144.603 111.975C144.603 109.675 143.953 107.9 142.653 106.65C141.403 105.4 139.153 104.425 135.903 103.725L132.303 102.9C129.803 102.4 127.528 101.7 125.478 100.8C123.478 99.9 121.753 98.775 120.303 97.425C118.903 96.075 117.803 94.475 117.003 92.625C116.253 90.775 115.878 88.6 115.878 86.1C115.878 83.9 116.278 81.9 117.078 80.1C117.878 78.25 119.028 76.675 120.528 75.375C122.028 74.075 123.853 73.075 126.003 72.375C128.153 71.625 130.578 71.25 133.278 71.25C136.328 71.25 138.753 71.8 140.553 72.9C142.403 73.95 143.653 75.1 144.303 76.35H144.603V72.15H152.328V87.225H144.603V83.925C144.603 81.325 143.703 79.425 141.903 78.225C140.103 76.975 137.553 76.35 134.253 76.35C130.803 76.35 128.253 77.1 126.603 78.6C125.003 80.05 124.203 81.85 124.203 84C124.203 86.4 124.953 88.225 126.453 89.475C127.953 90.675 130.478 91.675 134.028 92.475L137.403 93.15C142.453 94.3 146.353 96.125 149.103 98.625C151.903 101.125 153.303 104.675 153.303 109.275C153.303 111.625 152.878 113.775 152.028 115.725C151.178 117.675 149.928 119.375 148.278 120.825C146.678 122.275 144.728 123.4 142.428 124.2C140.128 125 137.528 125.4 134.628 125.4ZM179.043 120.45C181.743 120.45 183.743 119.625 185.043 117.975C186.393 116.325 187.068 114 187.068 111V98.85C187.068 95.85 186.393 93.525 185.043 91.875C183.743 90.225 181.743 89.4 179.043 89.4C176.343 89.4 174.318 90.225 172.968 91.875C171.668 93.525 171.018 95.85 171.018 98.85V111C171.018 114 171.668 116.325 172.968 117.975C174.318 119.625 176.343 120.45 179.043 120.45ZM179.043 125.4C176.243 125.4 173.693 124.95 171.393 124.05C169.143 123.1 167.193 121.75 165.543 120C163.943 118.2 162.693 116.05 161.793 113.55C160.893 111 160.443 108.125 160.443 104.925C160.443 101.725 160.893 98.875 161.793 96.375C162.693 93.825 163.943 91.675 165.543 89.925C167.193 88.125 169.143 86.775 171.393 85.875C173.693 84.925 176.243 84.45 179.043 84.45C181.843 84.45 184.368 84.925 186.618 85.875C188.918 86.775 190.868 88.125 192.468 89.925C194.118 91.675 195.393 93.825 196.293 96.375C197.193 98.875 197.643 101.725 197.643 104.925C197.643 108.125 197.193 111 196.293 113.55C195.393 116.05 194.118 118.2 192.468 120C190.868 121.75 188.918 123.1 186.618 124.05C184.368 124.95 181.843 125.4 179.043 125.4ZM223.139 125.4C220.089 125.4 217.389 124.9 215.039 123.9C212.739 122.85 210.789 121.425 209.189 119.625C207.639 117.775 206.439 115.6 205.589 113.1C204.789 110.55 204.389 107.8 204.389 104.85C204.389 101.65 204.889 98.775 205.889 96.225C206.889 93.675 208.264 91.55 210.014 89.85C211.764 88.1 213.839 86.775 216.239 85.875C218.639 84.925 221.239 84.45 224.039 84.45C228.489 84.45 231.939 85.375 234.389 87.225C236.839 89.075 238.064 91.425 238.064 94.275C238.064 96.075 237.564 97.5 236.564 98.55C235.614 99.6 234.264 100.125 232.514 100.125C230.764 100.125 229.414 99.65 228.464 98.7C227.564 97.75 227.114 96.525 227.114 95.025C227.114 93.825 227.414 92.8 228.014 91.95C228.664 91.1 229.439 90.475 230.339 90.075V89.7C229.789 89.45 229.114 89.25 228.314 89.1C227.564 88.95 226.539 88.875 225.239 88.875C222.089 88.875 219.589 89.925 217.739 92.025C215.889 94.125 214.964 96.975 214.964 100.575V107.7C214.964 111.25 215.814 114 217.514 115.95C219.214 117.9 221.564 118.875 224.564 118.875C227.414 118.875 229.664 118.225 231.314 116.925C233.014 115.625 234.289 114.05 235.139 112.2L238.739 114.45C238.289 115.7 237.639 116.975 236.789 118.275C235.989 119.575 234.939 120.75 233.639 121.8C232.389 122.85 230.889 123.725 229.139 124.425C227.389 125.075 225.389 125.4 223.139 125.4ZM253.763 79.125C251.913 79.125 250.463 78.6 249.413 77.55C248.413 76.5 247.913 75.125 247.913 73.425V73.05C247.913 71.35 248.413 69.975 249.413 68.925C250.463 67.875 251.913 67.35 253.763 67.35C255.613 67.35 257.038 67.875 258.038 68.925C259.088 69.975 259.613 71.35 259.613 73.05V73.425C259.613 75.125 259.088 76.5 258.038 77.55C257.038 78.6 255.613 79.125 253.763 79.125ZM244.088 120H248.888V92.175L244.088 91.2V87.45L258.713 84.45V120H263.513V124.5H244.088V120ZM287.445 125.4C284.445 125.4 281.77 124.9 279.42 123.9C277.12 122.9 275.17 121.5 273.57 119.7C271.97 117.85 270.745 115.675 269.895 113.175C269.095 110.625 268.695 107.85 268.695 104.85C268.695 101.75 269.12 98.95 269.97 96.45C270.87 93.9 272.12 91.75 273.72 90C275.32 88.2 277.22 86.825 279.42 85.875C281.67 84.925 284.145 84.45 286.845 84.45C289.545 84.45 291.97 84.9 294.12 85.8C296.32 86.65 298.17 87.875 299.67 89.475C301.22 91.075 302.395 93 303.195 95.25C304.045 97.45 304.47 99.925 304.47 102.675V105H279.27V107.7C279.27 111.3 280.195 114.075 282.045 116.025C283.945 117.925 286.42 118.875 289.47 118.875C292.27 118.875 294.52 118.25 296.22 117C297.92 115.75 299.17 114.2 299.97 112.35L303.645 114.6C303.195 115.85 302.52 117.125 301.62 118.425C300.77 119.675 299.67 120.825 298.32 121.875C297.02 122.925 295.47 123.775 293.67 124.425C291.87 125.075 289.795 125.4 287.445 125.4ZM279.27 100.65H294.27V99.675C294.27 96.075 293.62 93.425 292.32 91.725C291.07 90.025 289.245 89.175 286.845 89.175C284.445 89.175 282.57 90.025 281.22 91.725C279.92 93.375 279.27 96 279.27 99.6V100.65ZM322.82 125.175C319.87 125.175 317.745 124.55 316.445 123.3C315.195 122.05 314.57 120.125 314.57 117.525V90.15H309.395V85.35H311.045C312.795 85.35 314.045 85.025 314.795 84.375C315.545 83.675 316.195 82.65 316.745 81.3L319.445 74.775H324.395V85.35H333.395V90.15H324.395V119.85H333.395V123.675C332.595 124.075 331.22 124.425 329.27 124.725C327.32 125.025 325.17 125.175 322.82 125.175ZM344.427 140.4C341.577 140.4 339.402 139.7 337.902 138.3C336.402 136.95 335.652 135.3 335.652 133.35C335.652 131.7 336.102 130.4 337.002 129.45C337.952 128.55 339.252 128.1 340.902 128.1C342.452 128.1 343.652 128.575 344.502 129.525C345.402 130.475 345.852 131.65 345.852 133.05C345.852 133.75 345.702 134.375 345.402 134.925C345.152 135.525 344.877 135.95 344.577 136.2L344.652 136.65C344.902 136.7 345.302 136.725 345.852 136.725C348.452 136.725 350.777 134.125 352.827 128.925L353.877 126.3L339.402 89.85H335.727V85.35H354.402V89.85H349.827L358.452 114.3H358.827L367.452 89.85H362.877V85.35H376.677V89.85H373.077L357.327 129.225C356.777 130.575 356.127 131.925 355.377 133.275C354.677 134.625 353.802 135.825 352.752 136.875C351.752 137.925 350.552 138.775 349.152 139.425C347.802 140.075 346.227 140.4 344.427 140.4ZM416.128 120.45C418.828 120.45 420.828 119.625 422.128 117.975C423.478 116.325 424.153 114 424.153 111V98.85C424.153 95.85 423.478 93.525 422.128 91.875C420.828 90.225 418.828 89.4 416.128 89.4C413.428 89.4 411.403 90.225 410.053 91.875C408.753 93.525 408.103 95.85 408.103 98.85V111C408.103 114 408.753 116.325 410.053 117.975C411.403 119.625 413.428 120.45 416.128 120.45ZM416.128 125.4C413.328 125.4 410.778 124.95 408.478 124.05C406.228 123.1 404.278 121.75 402.628 120C401.028 118.2 399.778 116.05 398.878 113.55C397.978 111 397.528 108.125 397.528 104.925C397.528 101.725 397.978 98.875 398.878 96.375C399.778 93.825 401.028 91.675 402.628 89.925C404.278 88.125 406.228 86.775 408.478 85.875C410.778 84.925 413.328 84.45 416.128 84.45C418.928 84.45 421.453 84.925 423.703 85.875C426.003 86.775 427.953 88.125 429.553 89.925C431.203 91.675 432.478 93.825 433.378 96.375C434.278 98.875 434.728 101.725 434.728 104.925C434.728 108.125 434.278 111 433.378 113.55C432.478 116.05 431.203 118.2 429.553 120C427.953 121.75 426.003 123.1 423.703 124.05C421.453 124.95 418.928 125.4 416.128 125.4ZM440.52 120H445.32V90.15H440.52V85.35H445.32V81.45C445.32 77.05 446.67 73.625 449.37 71.175C452.12 68.725 455.845 67.5 460.545 67.5C463.845 67.5 466.295 68.2 467.895 69.6C469.545 71 470.37 72.65 470.37 74.55C470.37 76.1 469.945 77.35 469.095 78.3C468.245 79.2 467.095 79.65 465.645 79.65C464.145 79.65 462.995 79.225 462.195 78.375C461.395 77.525 460.995 76.5 460.995 75.3C460.995 74.35 461.195 73.6 461.595 73.05C461.995 72.5 462.445 72.1 462.945 71.85V71.475C462.695 71.425 462.37 71.4 461.97 71.4C461.62 71.35 461.27 71.325 460.92 71.325C457.07 71.325 455.145 74.125 455.145 79.725V85.35H462.945V90.15H455.145V120H461.445V124.5H440.52V120ZM63.2598 187H68.5848V143.65H63.2598V139.15H84.4098V143.65H79.0848V166H79.4598L87.5598 157.075L99.9348 143.65H94.4598V139.15H112.16V143.65H106.76L92.5848 158.65L110.135 187H114.86V191.5H93.0348V187H97.9848L85.3848 165.85L79.0848 172.45V187H84.4098V191.5H63.2598V187ZM118.329 187H123.129V159.175L118.329 158.2V154.45L132.804 151.45V158.725H133.179C133.529 157.775 134.004 156.875 134.604 156.025C135.254 155.125 136.029 154.35 136.929 153.7C137.879 153 138.954 152.45 140.154 152.05C141.354 151.65 142.729 151.45 144.279 151.45C149.029 151.45 152.404 152.675 154.404 155.125C156.404 157.525 157.404 161.15 157.404 166V187H162.204V191.5H143.004V187H147.579V166.45C147.579 163.5 147.029 161.375 145.929 160.075C144.829 158.725 143.054 158.05 140.604 158.05C139.654 158.05 138.729 158.175 137.829 158.425C136.929 158.675 136.104 159.075 135.354 159.625C134.654 160.125 134.079 160.775 133.629 161.575C133.179 162.375 132.954 163.325 132.954 164.425V187H137.529V191.5H118.329V187ZM186.001 187.45C188.701 187.45 190.701 186.625 192.001 184.975C193.351 183.325 194.026 181 194.026 178V165.85C194.026 162.85 193.351 160.525 192.001 158.875C190.701 157.225 188.701 156.4 186.001 156.4C183.301 156.4 181.276 157.225 179.926 158.875C178.626 160.525 177.976 162.85 177.976 165.85V178C177.976 181 178.626 183.325 179.926 184.975C181.276 186.625 183.301 187.45 186.001 187.45ZM186.001 192.4C183.201 192.4 180.651 191.95 178.351 191.05C176.101 190.1 174.151 188.75 172.501 187C170.901 185.2 169.651 183.05 168.751 180.55C167.851 178 167.401 175.125 167.401 171.925C167.401 168.725 167.851 165.875 168.751 163.375C169.651 160.825 170.901 158.675 172.501 156.925C174.151 155.125 176.101 153.775 178.351 152.875C180.651 151.925 183.201 151.45 186.001 151.45C188.801 151.45 191.326 151.925 193.576 152.875C195.876 153.775 197.826 155.125 199.426 156.925C201.076 158.675 202.351 160.825 203.251 163.375C204.151 165.875 204.601 168.725 204.601 171.925C204.601 175.125 204.151 178 203.251 180.55C202.351 183.05 201.076 185.2 199.426 187C197.826 188.75 195.876 190.1 193.576 191.05C191.326 191.95 188.801 192.4 186.001 192.4ZM211.171 156.85H207.571V152.35H226.021V156.85H221.221L227.446 181.75H227.821L236.296 152.35H244.246L252.721 181.75H253.096L259.321 156.85H254.521V152.35H268.096V156.85H264.496L254.446 191.5H246.796L238.021 163.225H237.646L228.871 191.5H221.221L211.171 156.85ZM271.607 187H276.407V142.225L271.607 141.25V137.5L286.232 134.5V187H291.032V191.5H271.607V187ZM314.984 192.4C311.984 192.4 309.309 191.9 306.959 190.9C304.659 189.9 302.709 188.5 301.109 186.7C299.509 184.85 298.284 182.675 297.434 180.175C296.634 177.625 296.234 174.85 296.234 171.85C296.234 168.75 296.659 165.95 297.509 163.45C298.409 160.9 299.659 158.75 301.259 157C302.859 155.2 304.759 153.825 306.959 152.875C309.209 151.925 311.684 151.45 314.384 151.45C317.084 151.45 319.509 151.9 321.659 152.8C323.859 153.65 325.709 154.875 327.209 156.475C328.759 158.075 329.934 160 330.734 162.25C331.584 164.45 332.009 166.925 332.009 169.675V172H306.809V174.7C306.809 178.3 307.734 181.075 309.584 183.025C311.484 184.925 313.959 185.875 317.009 185.875C319.809 185.875 322.059 185.25 323.759 184C325.459 182.75 326.709 181.2 327.509 179.35L331.184 181.6C330.734 182.85 330.059 184.125 329.159 185.425C328.309 186.675 327.209 187.825 325.859 188.875C324.559 189.925 323.009 190.775 321.209 191.425C319.409 192.075 317.334 192.4 314.984 192.4ZM306.809 167.65H321.809V166.675C321.809 163.075 321.159 160.425 319.859 158.725C318.609 157.025 316.784 156.175 314.384 156.175C311.984 156.175 310.109 157.025 308.759 158.725C307.459 160.375 306.809 163 306.809 166.6V167.65ZM354.322 192.4C351.922 192.4 349.747 191.925 347.797 190.975C345.897 190.025 344.247 188.675 342.847 186.925C341.497 185.125 340.447 182.975 339.697 180.475C338.997 177.925 338.647 175.075 338.647 171.925C338.647 168.775 338.997 165.95 339.697 163.45C340.447 160.9 341.497 158.75 342.847 157C344.247 155.2 345.897 153.825 347.797 152.875C349.747 151.925 351.922 151.45 354.322 151.45C357.172 151.45 359.472 152.125 361.222 153.475C362.972 154.825 364.222 156.375 364.972 158.125H365.347V142.225L360.547 141.25V137.5L375.172 134.5V184.675L379.972 185.65V189.4L365.347 192.4V185.65H364.972C364.222 187.45 362.947 189.025 361.147 190.375C359.397 191.725 357.122 192.4 354.322 192.4ZM357.547 186.25C359.647 186.25 361.472 185.625 363.022 184.375C364.572 183.075 365.347 181.325 365.347 179.125V164.725C365.347 162.525 364.572 160.8 363.022 159.55C361.472 158.25 359.647 157.6 357.547 157.6C355.047 157.6 353.022 158.45 351.472 160.15C349.922 161.85 349.147 164.25 349.147 167.35V176.5C349.147 179.6 349.922 182 351.472 183.7C353.022 185.4 355.047 186.25 357.547 186.25ZM402.625 207.4C399.125 207.4 396.2 207.2 393.85 206.8C391.55 206.4 389.675 205.8 388.225 205C386.825 204.25 385.825 203.325 385.225 202.225C384.625 201.125 384.325 199.9 384.325 198.55C384.325 196.65 385.15 195.075 386.8 193.825C388.45 192.575 390.4 191.75 392.65 191.35V191.05C390.95 190.65 389.6 189.85 388.6 188.65C387.6 187.4 387.1 185.825 387.1 183.925C387.1 181.725 387.825 180 389.275 178.75C390.725 177.5 392.475 176.65 394.525 176.2V175.825C392.025 174.825 390.075 173.375 388.675 171.475C387.325 169.575 386.65 167.2 386.65 164.35C386.65 162.3 387.025 160.475 387.775 158.875C388.575 157.275 389.675 155.925 391.075 154.825C392.525 153.725 394.225 152.9 396.175 152.35C398.175 151.75 400.375 151.45 402.775 151.45C404.725 151.45 406.5 151.65 408.1 152.05C409.7 152.45 411.175 153.025 412.525 153.775C412.725 150.975 413.4 148.95 414.55 147.7C415.75 146.4 417.375 145.75 419.425 145.75C420.775 145.75 421.9 146.15 422.8 146.95C423.7 147.7 424.15 148.8 424.15 150.25C424.15 151.55 423.725 152.625 422.875 153.475C422.025 154.275 420.875 154.675 419.425 154.675C418.625 154.675 417.875 154.525 417.175 154.225C416.475 153.925 415.9 153.475 415.45 152.875H415.15V155.575C416.3 156.575 417.225 157.775 417.925 159.175C418.675 160.575 419.05 162.3 419.05 164.35C419.05 166.4 418.65 168.25 417.85 169.9C417.05 171.5 415.925 172.85 414.475 173.95C413.075 175.05 411.375 175.9 409.375 176.5C407.375 177.05 405.175 177.325 402.775 177.325C401.025 177.325 399.275 177.125 397.525 176.725C396.675 177.125 395.975 177.675 395.425 178.375C394.875 179.025 394.6 179.75 394.6 180.55C394.6 181.65 395 182.475 395.8 183.025C396.65 183.525 398.025 183.775 399.925 183.775H408.7C413.85 183.775 417.55 184.725 419.8 186.625C422.05 188.525 423.175 191.125 423.175 194.425C423.175 198.475 421.475 201.65 418.075 203.95C414.675 206.25 409.525 207.4 402.625 207.4ZM402.85 172.75C407.15 172.75 409.3 170.35 409.3 165.55V163.3C409.3 158.5 407.15 156.1 402.85 156.1C398.55 156.1 396.4 158.5 396.4 163.3V165.55C396.4 170.35 398.55 172.75 402.85 172.75ZM392.425 197.8C392.425 201.2 395.275 202.9 400.975 202.9H405.4C408.55 202.9 410.925 202.425 412.525 201.475C414.175 200.525 415 199.125 415 197.275C415 195.525 414.4 194.3 413.2 193.6C412.05 192.95 410.25 192.625 407.8 192.625H395.35C394.35 193.225 393.6 193.925 393.1 194.725C392.65 195.575 392.425 196.6 392.425 197.8ZM445.575 192.4C442.575 192.4 439.9 191.9 437.55 190.9C435.25 189.9 433.3 188.5 431.7 186.7C430.1 184.85 428.875 182.675 428.025 180.175C427.225 177.625 426.825 174.85 426.825 171.85C426.825 168.75 427.25 165.95 428.1 163.45C429 160.9 430.25 158.75 431.85 157C433.45 155.2 435.35 153.825 437.55 152.875C439.8 151.925 442.275 151.45 444.975 151.45C447.675 151.45 450.1 151.9 452.25 152.8C454.45 153.65 456.3 154.875 457.8 156.475C459.35 158.075 460.525 160 461.325 162.25C462.175 164.45 462.6 166.925 462.6 169.675V172H437.4V174.7C437.4 178.3 438.325 181.075 440.175 183.025C442.075 184.925 444.55 185.875 447.6 185.875C450.4 185.875 452.65 185.25 454.35 184C456.05 182.75 457.3 181.2 458.1 179.35L461.775 181.6C461.325 182.85 460.65 184.125 459.75 185.425C458.9 186.675 457.8 187.825 456.45 188.875C455.15 189.925 453.6 190.775 451.8 191.425C450 192.075 447.925 192.4 445.575 192.4ZM437.4 167.65H452.4V166.675C452.4 163.075 451.75 160.425 450.45 158.725C449.2 157.025 447.375 156.175 444.975 156.175C442.575 156.175 440.7 157.025 439.35 158.725C438.05 160.375 437.4 163 437.4 166.6V167.65Z" fill="currentColor"/>
</svg>
